<svg xmlns="http://www.w3.org/2000/svg" xmlns:xlink="http://www.w3.org/1999/xlink" viewBox="0 0 390.73 347.75"><defs><style>.cls-1{fill:url(#linear-gradient);}</style><linearGradient id="linear-gradient" x1="-774.27" y1="923.66" x2="-383.83" y2="923.66" gradientTransform="translate(730.33 -780.61) rotate(-2.9)" gradientUnits="userSpaceOnUse"><stop offset="0.01" stop-color="#ff1818"/><stop offset="0.72" stop-color="#a456a1"/><stop offset="1" stop-color="#7160d6"/></linearGradient></defs><title>Heart_single</title><g id="Layer_2" data-name="Layer 2"><g id="Layer_1-2" data-name="Layer 1"><path class="cls-1" d="M383.48,64.4a86.11,86.11,0,0,0-19.23-29.88A105.1,105.1,0,0,0,291,2.6c-27.09-.37-53.18,10-74.44,29.89L195.71,52.82,185.55,42.37,175,31.92A105.1,105.1,0,0,0,101.79,0,105.1,105.1,0,0,0,27.73,29.9C7.23,49.47.38,76.09,0,103.18c-.38,27.85,10.37,50.9,40,86C54.68,207,74.62,228.22,99.47,253c24.46,25.14,55.32,56.47,92.2,94.76q32.81-31.92,59.56-57.63c12.77-12.29,24.55-23.6,35.19-33.8,50.66-48.53,80.88-81.7,94.21-107.47a88.78,88.78,0,0,0,10.09-40.31C390.92,93.36,388.85,78.28,383.48,64.4Z"/></g></g></svg>